<svg version="1.2" baseProfile="tiny-ps" xmlns="http://www.w3.org/2000/svg" viewBox="0 0 64 64" width="64" height="64">
	<title>Nuevo proyecto</title>
	<style>
		tspan { white-space:pre }
		.s0 { fill: #ff8645 } 
		.s1 { fill: #fdb33f } 
		.s2 { fill: #00a1fe } 
	</style>
	<path id="Forma 1" class="s0" d="m3 36c0-2.76 2.24-5 5-5h20c2.76 0 5 2.24 5 5v21c0 2.76-2.24 5-5 5h-20c-2.76 0-5-2.24-5-5v-21z" />
	<path id="Forma 1 copy" class="s1" d="m32.09 34.87c0.02-2.76 2.28-4.98 5.04-4.96l20 0.17c2.76 0.02 4.98 2.28 4.96 5.04l-0.18 21c-0.02 2.76-2.28 4.98-5.04 4.96l-20-0.17c-2.76-0.02-4.98-2.28-4.96-5.04l0.18-21z" />
	<path id="Forma 1 copy 2" class="s2" d="m21.75 6.42c0.71-2.67 3.46-4.25 6.12-3.54l19.32 5.17c2.67 0.71 4.25 3.46 3.54 6.12l-4.66 17.39c-0.71 2.67-3.46 4.25-6.12 3.54l-19.32-5.17c-2.67-0.71-4.25-3.46-3.54-6.12l4.66-17.39z" />
	<path id="A" fill="#ffffff" aria-label="A"  d="m36.89 23.46l-0.3 0.16l-0.13-0.12q-0.99-0.6-2.16-1.04q-1.17-0.43-2.34-1.06q1.15 0.62 2.27 1.13q1.13 0.48 2.16 1.21q-0.43 0.13-0.83 0q-0.47-0.2-0.92-0.44q-0.43-0.24-0.95-0.45q0.05-0.15 0.15-0.21q-0.74-0.22-1.43-0.6q-0.67-0.37-1.3-0.75q-0.63-0.41-1.24-0.76q-0.58-0.37-1.14-0.54q-0.02 0.08-0.05 0.07q0.62 0.33 1.14 0.73q0.52 0.41 1.22 0.76q0.66 0.39 1.3 0.67q0.66 0.28 1.29 0.61q-1.04-0.42-2.1-0.96q-1.03-0.53-2.03-1.11l-1.1-0.67q-1.13 1.46-2.27 2.86q-1.11 1.38-2.2 2.82q-0.02-0.12-0.15-0.16q-0.09-0.06-0.22-0.09q-0.1-0.03-0.19-0.11q-0.08-0.11-0.02-0.31q0.06-0.21 0.27-0.54q0.22-0.36 0.68-0.89q-0.04-0.07-0.16-0.1q-0.09-0.06-0.15-0.07q-0.83 0.93-1.49 1.38q-0.63 0.43-0.91 0.35q-0.31-0.09-0.13-0.68q0.15-0.49 0.55-1.18q0.41-0.72 0.93-1.52q0.54-0.79 1.15-1.62q0.62-0.85 1.19-1.66q-0.23-0.26-0.53-0.44q-0.28-0.17-0.65-0.33q0.11-0.08 0.15-0.23q0.05-0.15 0.12-0.3q0.07-0.15 0.18-0.23q0.11-0.08 0.31-0.02q0.05 0.02 0.29 0.14l0.07-0.23q-0.35-0.33-0.49-0.68q-0.12-0.34-0.03-0.63q0.18-0.62 1.36-0.27q0.33 0.1 0.65 0.25q0.35 0.13 0.69 0.29l1.98-2.35q0.64-0.76 1.35-1.56q0.74-0.79 1.62-1.51q0.88-0.72 1.88-1.29q1.04-0.59 2.25-0.93l0.43-0.04q0.66 0.39 1.05 0.65q0.43 0.24 0.69 0.38q0.22 0.18 0.37 0.25l-0.03-0.01l0 0.08q-0.01 0.03-0.04 0.04l0.14 0.63q0.82 3.3 1.06 6.66q0.25 3.36 0.19 6.51q0.01 0.7 0.07 1.54q0.09 0.81 0.14 1.56q0.09 0.73 0.1 1.32q0.02 0.57-0.04 0.8q-0.05 0.18-0.15 0.21q-0.08 0-0.21-0.04q-0.16-1.87-0.26-3.67q-0.11-1.77-0.18-3.56q0.02 1.77 0.11 3.54q0.1 1.8 0.19 3.65l-0.18-0.05q-0.15-0.05-0.25 0.09q0.04 0.07 0.04 0.32q0.01 0.23 0.01 0.51q0.01 0.25-0.02 0.53q-0.03 0.27-0.06 0.4q-0.17 0.57-0.5 0.47q-0.18-0.05-0.26-0.16q-0.08-0.11-0.17-0.27l-0.18-0.33q-0.11-0.2-0.29-0.42l-0.32-7.84q0.03 1.83 0.04 3.66q0.03 1.83 0.11 3.62q-0.26-0.61-0.41-1.41q-0.12-0.79-0.2-1.66q-0.05-0.86-0.07-1.73q-0.01-0.9-0.05-1.7q-0.02 0.05-0.03 0.1q0.02 0.03 0 0.08q-0.12 0.41-0.44 0.54zm0.45-1.04l-0.1-1.52q0.05 0.02 0.16 0.02q0.12-0.02 0.17-0.01q-0.2-2.39-0.44-4.65q-0.22-2.25-0.65-4.4l-0.2 0.11l0.17 0.81q0.4 1.91 0.59 3.88q0.19 1.96 0.27 4.01q-0.14-2.23-0.41-4.47q-0.24-2.26-0.72-4.17l-0.12 0.02q-1.14 0.64-2.28 1.68q-1.12 1.04-2.17 2.16l-1.15 1.42l0.4 0.23q0.35 0.22 0.67 0.45q0.35 0.22 0.59 0.43q0.48 0.45 1.35 0.88q0.87 0.43 1.69 0.84q0.85 0.39 1.44 0.77q0.62 0.35 0.52 0.66l-3-1.29q0.26 0.14 0.65 0.33q0.39 0.17 0.78 0.37q0.41 0.21 0.79 0.41q0.39 0.17 0.66 0.31q-0.02 0.08-0.07 0.15q-0.02 0.05-0.03 0.1q-0.02 0.05 0.03 0.09q0.08 0.02 0.15 0.07q0.1 0.03 0.16 0.1q0.07 0.05 0.11 0.2zm-3.98-8.68q0.05 0.02 0 0.08q-0.02 0.05 0.01 0.06q0.05 0.02 0.41-0.27q0.36-0.28 0.83-0.65q0.47-0.36 0.9-0.69q0.43-0.32 0.59-0.41l-0.07-0.22q-0.69 0.36-1.35 0.91q-0.67 0.56-1.32 1.18zm3.43-2.01l-0.03-0.01q0.4 1.63 0.63 3.36q0.22 1.69 0.36 3.36q-0.04-1.64-0.28-3.34q-0.26-1.73-0.68-3.37zm2.72 5.02q0.17 2.3 0.3 4.66q-0.09-2.3-0.27-4.57q-0.14-2.23-0.5-4.55q0.33 2.23 0.47 4.46zm-2.28-5.65l-0.14 0.1q0.31 0.18 0.41 0.29q0.1 0.12 0.16 0.13l0.05-0.07q0.03 0.01-0.09-0.06q-0.12-0.06-0.19-0.11l0.08-0.09l-0.27-0.19zm-1.35-0.6l0.04 0.07l0.04 0.6l0.14-0.55q-0.05-0.02-0.12-0.06q-0.04-0.04-0.09-0.06zm0.55 1.23l-0.07-0.22l-0.22 0.08l0.09 0.25l0.2-0.11zm0.24-0.35l0.06 0.18l0.03 0.01l-0.07-0.22l-0.01 0.03z" />
	<path id="A copy 2" fill="#ffffff" aria-label="A"  d="m36.89 23.46l-0.3 0.16l-0.13-0.12q-0.99-0.6-2.16-1.04q-1.17-0.43-2.34-1.06q1.15 0.62 2.27 1.13q1.13 0.48 2.16 1.21q-0.43 0.13-0.83 0q-0.47-0.2-0.92-0.44q-0.43-0.24-0.95-0.45q0.05-0.15 0.15-0.21q-0.74-0.22-1.43-0.6q-0.67-0.37-1.3-0.75q-0.63-0.41-1.24-0.76q-0.58-0.37-1.14-0.54q-0.02 0.08-0.05 0.07q0.62 0.33 1.14 0.73q0.52 0.41 1.22 0.76q0.66 0.39 1.3 0.67q0.66 0.28 1.29 0.61q-1.04-0.42-2.1-0.96q-1.03-0.53-2.03-1.11l-1.1-0.67q-1.13 1.46-2.27 2.86q-1.11 1.38-2.2 2.82q-0.02-0.12-0.15-0.16q-0.09-0.06-0.22-0.09q-0.1-0.03-0.19-0.11q-0.08-0.11-0.02-0.31q0.06-0.21 0.27-0.54q0.22-0.36 0.68-0.89q-0.04-0.07-0.16-0.1q-0.09-0.06-0.15-0.07q-0.83 0.93-1.49 1.38q-0.63 0.43-0.91 0.35q-0.31-0.09-0.13-0.68q0.15-0.49 0.55-1.18q0.41-0.72 0.93-1.52q0.54-0.79 1.15-1.62q0.62-0.85 1.19-1.66q-0.23-0.26-0.53-0.44q-0.28-0.17-0.65-0.33q0.11-0.08 0.15-0.23q0.05-0.15 0.12-0.3q0.07-0.15 0.18-0.23q0.11-0.08 0.31-0.02q0.05 0.02 0.29 0.14l0.07-0.23q-0.35-0.33-0.49-0.68q-0.12-0.34-0.03-0.63q0.18-0.62 1.36-0.27q0.33 0.1 0.65 0.25q0.35 0.13 0.69 0.29l1.98-2.35q0.64-0.76 1.35-1.56q0.74-0.79 1.62-1.51q0.88-0.72 1.88-1.29q1.04-0.59 2.25-0.93l0.43-0.04q0.66 0.39 1.05 0.65q0.43 0.24 0.69 0.38q0.22 0.18 0.37 0.25l-0.03-0.01l0 0.08q-0.01 0.03-0.04 0.04l0.14 0.63q0.82 3.3 1.06 6.66q0.25 3.36 0.19 6.51q0.01 0.7 0.07 1.54q0.09 0.81 0.14 1.56q0.09 0.73 0.1 1.32q0.02 0.57-0.04 0.8q-0.05 0.18-0.15 0.21q-0.08 0-0.21-0.04q-0.16-1.87-0.26-3.67q-0.11-1.77-0.18-3.56q0.02 1.77 0.11 3.54q0.1 1.8 0.19 3.65l-0.18-0.05q-0.15-0.05-0.25 0.09q0.04 0.07 0.04 0.32q0.01 0.23 0.01 0.51q0.01 0.25-0.02 0.53q-0.03 0.27-0.06 0.4q-0.17 0.57-0.5 0.47q-0.18-0.05-0.26-0.16q-0.08-0.11-0.17-0.27l-0.18-0.33q-0.11-0.2-0.29-0.42l-0.32-7.84q0.03 1.83 0.04 3.66q0.03 1.83 0.11 3.62q-0.26-0.61-0.41-1.41q-0.12-0.79-0.2-1.66q-0.05-0.86-0.07-1.73q-0.01-0.9-0.05-1.7q-0.02 0.05-0.03 0.1q0.02 0.03 0 0.08q-0.12 0.41-0.44 0.54zm0.45-1.04l-0.1-1.52q0.05 0.02 0.16 0.02q0.12-0.02 0.17-0.01q-0.2-2.39-0.44-4.65q-0.22-2.25-0.65-4.4l-0.2 0.11l0.17 0.81q0.4 1.91 0.59 3.88q0.19 1.96 0.27 4.01q-0.14-2.23-0.41-4.47q-0.24-2.26-0.72-4.17l-0.12 0.02q-1.14 0.64-2.28 1.68q-1.12 1.04-2.17 2.16l-1.15 1.42l0.4 0.23q0.35 0.22 0.67 0.45q0.35 0.22 0.59 0.43q0.48 0.45 1.35 0.88q0.87 0.43 1.69 0.84q0.85 0.39 1.44 0.77q0.62 0.35 0.52 0.66l-3-1.29q0.26 0.14 0.65 0.33q0.39 0.17 0.78 0.37q0.41 0.21 0.79 0.41q0.39 0.17 0.66 0.31q-0.02 0.08-0.07 0.15q-0.02 0.05-0.03 0.1q-0.02 0.05 0.03 0.09q0.08 0.02 0.15 0.07q0.1 0.03 0.16 0.1q0.07 0.05 0.11 0.2zm-3.98-8.68q0.05 0.02 0 0.08q-0.02 0.05 0.01 0.06q0.05 0.02 0.41-0.27q0.36-0.28 0.83-0.65q0.47-0.36 0.9-0.69q0.43-0.32 0.59-0.41l-0.07-0.22q-0.69 0.36-1.35 0.91q-0.67 0.56-1.32 1.18zm3.43-2.01l-0.03-0.01q0.4 1.63 0.63 3.36q0.22 1.69 0.36 3.36q-0.04-1.64-0.28-3.34q-0.26-1.73-0.68-3.37zm2.72 5.02q0.17 2.3 0.3 4.66q-0.09-2.3-0.27-4.57q-0.14-2.23-0.5-4.55q0.33 2.23 0.47 4.46zm-2.28-5.65l-0.14 0.1q0.31 0.18 0.41 0.29q0.1 0.12 0.16 0.13l0.05-0.07q0.03 0.01-0.09-0.06q-0.12-0.06-0.19-0.11l0.08-0.09l-0.27-0.19zm-1.35-0.6l0.04 0.07l0.04 0.6l0.14-0.55q-0.05-0.02-0.12-0.06q-0.04-0.04-0.09-0.06zm0.55 1.23l-0.07-0.22l-0.22 0.08l0.09 0.25l0.2-0.11zm0.24-0.35l0.06 0.18l0.03 0.01l-0.07-0.22l-0.01 0.03z" />
	<path id="A copy" fill="#ffffff" aria-label="A"  d="m36.89 23.46l-0.3 0.16l-0.13-0.12q-0.99-0.6-2.16-1.04q-1.17-0.43-2.34-1.06q1.15 0.62 2.27 1.13q1.13 0.48 2.16 1.21q-0.43 0.13-0.83 0q-0.47-0.2-0.92-0.44q-0.43-0.24-0.95-0.45q0.05-0.15 0.15-0.21q-0.74-0.22-1.43-0.6q-0.67-0.37-1.3-0.75q-0.63-0.41-1.24-0.76q-0.58-0.37-1.14-0.54q-0.02 0.08-0.05 0.07q0.62 0.33 1.14 0.73q0.52 0.41 1.22 0.76q0.66 0.39 1.3 0.67q0.66 0.28 1.29 0.61q-1.04-0.42-2.1-0.96q-1.03-0.53-2.03-1.11l-1.1-0.67q-1.13 1.46-2.27 2.86q-1.11 1.38-2.2 2.82q-0.02-0.12-0.15-0.16q-0.09-0.06-0.22-0.09q-0.1-0.03-0.19-0.11q-0.08-0.11-0.02-0.31q0.06-0.21 0.27-0.54q0.22-0.36 0.68-0.89q-0.04-0.07-0.16-0.1q-0.09-0.06-0.15-0.07q-0.83 0.93-1.49 1.38q-0.63 0.43-0.91 0.35q-0.31-0.09-0.13-0.68q0.15-0.49 0.55-1.18q0.41-0.72 0.93-1.52q0.54-0.79 1.15-1.62q0.62-0.85 1.19-1.66q-0.23-0.26-0.53-0.44q-0.28-0.17-0.65-0.33q0.11-0.08 0.15-0.23q0.05-0.15 0.12-0.3q0.07-0.15 0.18-0.23q0.11-0.08 0.31-0.02q0.05 0.02 0.29 0.14l0.07-0.23q-0.35-0.33-0.49-0.68q-0.12-0.34-0.03-0.63q0.18-0.62 1.36-0.27q0.33 0.1 0.65 0.25q0.35 0.13 0.69 0.29l1.98-2.35q0.64-0.76 1.35-1.56q0.74-0.79 1.62-1.51q0.88-0.72 1.88-1.29q1.04-0.59 2.25-0.93l0.43-0.04q0.66 0.39 1.05 0.65q0.43 0.24 0.69 0.38q0.22 0.18 0.37 0.25l-0.03-0.01l0 0.08q-0.01 0.03-0.04 0.04l0.14 0.63q0.82 3.3 1.06 6.66q0.25 3.36 0.19 6.51q0.01 0.7 0.07 1.54q0.09 0.81 0.14 1.56q0.09 0.73 0.1 1.32q0.02 0.57-0.04 0.8q-0.05 0.18-0.15 0.21q-0.08 0-0.21-0.04q-0.16-1.87-0.26-3.67q-0.11-1.77-0.18-3.56q0.02 1.77 0.11 3.54q0.1 1.8 0.19 3.65l-0.18-0.05q-0.15-0.05-0.25 0.09q0.04 0.07 0.04 0.32q0.01 0.23 0.01 0.51q0.01 0.25-0.02 0.53q-0.03 0.27-0.06 0.4q-0.17 0.57-0.5 0.47q-0.18-0.05-0.26-0.16q-0.08-0.11-0.17-0.27l-0.18-0.33q-0.11-0.2-0.29-0.42l-0.32-7.84q0.03 1.83 0.04 3.66q0.03 1.83 0.11 3.62q-0.26-0.61-0.41-1.41q-0.12-0.79-0.2-1.66q-0.05-0.86-0.07-1.73q-0.01-0.9-0.05-1.7q-0.02 0.05-0.03 0.1q0.02 0.03 0 0.08q-0.12 0.41-0.44 0.54zm0.45-1.04l-0.1-1.52q0.05 0.02 0.16 0.02q0.12-0.02 0.17-0.01q-0.2-2.39-0.44-4.65q-0.22-2.25-0.65-4.4l-0.2 0.11l0.17 0.81q0.4 1.91 0.59 3.88q0.19 1.96 0.27 4.01q-0.14-2.23-0.41-4.47q-0.24-2.26-0.72-4.17l-0.12 0.02q-1.14 0.64-2.28 1.68q-1.12 1.04-2.17 2.16l-1.15 1.42l0.4 0.23q0.35 0.22 0.67 0.45q0.35 0.22 0.59 0.43q0.48 0.45 1.35 0.88q0.87 0.43 1.69 0.84q0.85 0.39 1.44 0.77q0.62 0.35 0.52 0.66l-3-1.29q0.26 0.14 0.65 0.33q0.39 0.17 0.78 0.37q0.41 0.21 0.79 0.41q0.39 0.17 0.66 0.31q-0.02 0.08-0.07 0.15q-0.02 0.05-0.03 0.1q-0.02 0.05 0.03 0.09q0.08 0.02 0.15 0.07q0.1 0.03 0.16 0.1q0.07 0.05 0.11 0.2zm-3.98-8.68q0.05 0.02 0 0.08q-0.02 0.05 0.01 0.06q0.05 0.02 0.41-0.27q0.36-0.28 0.83-0.65q0.47-0.36 0.9-0.69q0.43-0.32 0.59-0.41l-0.07-0.22q-0.69 0.36-1.35 0.91q-0.67 0.56-1.32 1.18zm3.43-2.01l-0.03-0.01q0.4 1.63 0.63 3.36q0.22 1.69 0.36 3.36q-0.04-1.64-0.28-3.34q-0.26-1.73-0.68-3.37zm2.72 5.02q0.17 2.3 0.3 4.66q-0.09-2.3-0.27-4.57q-0.14-2.23-0.5-4.55q0.33 2.23 0.47 4.46zm-2.28-5.65l-0.14 0.1q0.31 0.18 0.41 0.29q0.1 0.12 0.16 0.13l0.05-0.07q0.03 0.01-0.09-0.06q-0.12-0.06-0.19-0.11l0.08-0.09l-0.27-0.19zm-1.35-0.6l0.04 0.07l0.04 0.6l0.14-0.55q-0.05-0.02-0.12-0.06q-0.04-0.04-0.09-0.06zm0.55 1.23l-0.07-0.22l-0.22 0.08l0.09 0.25l0.2-0.11zm0.24-0.35l0.06 0.18l0.03 0.01l-0.07-0.22l-0.01 0.03z" />
	<path id="B" fill="#ffffff" aria-label="B"  d="m12.19 52.42l0-0.78l-0.03-0.83l0.34-0.23q-0.1-0.45-0.14-0.88q-0.04-0.46-0.06-0.91q-0.02-0.51-0.04-0.99q0.01-0.51-0.01-1.05q-0.02-0.56-0.1-1.13q-0.07-0.56-0.23-1.12l-0.16 0.01q0.08 1.42 0.19 2.79q0.13 1.37 0.19 2.79q-0.21-2.04-0.47-4.07q-0.24-2.03-0.32-4.13q-0.02-0.62 0.01-1.24q0.06-0.65 0.11-1.27l-1.74 0.52l0.02-0.08q-0.06-0.08-0.17-0.29q-0.09-0.21-0.09-0.27q-0.01-0.13 0.26-0.28q0.29-0.17 0.63-0.29q0.37-0.12 0.68-0.21q0.34-0.09 0.47-0.13l-0.09-0.32q-0.21 0.06-0.87 0.17q-0.64 0.08-1.3 0.1q-0.53 0.02-0.93-0.05q-0.4-0.07-0.41-0.33q-0.01-0.3 0.51-0.61q0.52-0.32 1.33-0.59q0.84-0.3 1.84-0.55q1-0.25 1.92-0.45q0.92-0.2 1.66-0.31q0.74-0.11 1.03-0.12q1.35-0.05 2.59 0.25q1.26 0.27 2.22 0.96q0.96 0.66 1.53 1.74q0.6 1.08 0.66 2.58q0.02 0.62-0.14 1.3q-0.16 0.65-0.54 1.28q-0.35 0.61-0.94 1.11q-0.57 0.51-1.38 0.75q1.39 0.14 2.39 0.55q1.03 0.42 1.66 1.04q0.66 0.62 0.98 1.41q0.32 0.79 0.36 1.71q0.05 1.18-0.4 2.03q-0.42 0.85-1.17 1.44q-0.75 0.59-1.72 0.95q-0.97 0.33-2.03 0.53q-1.06 0.2-2.09 0.3q-1.03 0.07-1.88 0.1q-0.21 0.01-0.82 0q-0.59 0-1.23-0.06q-0.64-0.06-1.15-0.17q-0.48-0.14-0.49-0.38l0.02-0.14q1.12 0.15 2.24 0.24q1.12 0.06 2.24 0.02q0.85-0.03 1.67-0.17q0.82-0.14 1.64-0.33q-1.48 0.33-3.1 0.39q-1.14 0.04-2.29-0.02q-1.12-0.06-2.24-0.21l0.12-0.33l-0.06-0.19q-0.08 0.03-0.24 0.04q-0.27 0.01-0.61-0.08q-0.35-0.09-0.67-0.24q-0.3-0.15-0.52-0.36q-0.22-0.21-0.23-0.42q-0.01-0.13 0.2-0.22q0.21-0.09 0.47-0.13q0.29-0.06 0.55-0.1q0.26-0.04 0.37-0.07zm2.17-13.61q0.06 0.16 0.13 0.69q0.1 0.51 0.18 1.2q0.11 0.7 0.19 1.5q0.08 0.8 0.14 1.55q0.08 0.72 0.13 1.31q0.05 0.56 0.06 0.8q0.05 1.42 0 2.85q-0.05 1.4 0 2.82q0.02 0.54 0.37 0.66q0.38 0.12 0.8 0.1q1.27-0.05 2.52-0.18q1.24-0.16 2.42-0.66l0.09 0.32q0.52-0.29 0.9-0.68q0.41-0.42 0.38-1.06q-0.03-0.73-0.5-1.22q-0.47-0.52-1.15-0.82q-0.65-0.3-1.4-0.43q-0.72-0.13-1.28-0.11q-0.05 0-0.21 0.09q-0.16 0.06-0.24 0.09q0.37 0.01 0.93 0.1q0.56 0.09 1.15 0.25q0.59 0.14 1.13 0.39q0.54 0.25 0.9 0.56q-0.52-0.38-1.41-0.62q-0.91-0.23-1.88-0.36q-0.94-0.13-1.74-0.18q-0.8-0.08-1.1-0.12l-0.25-2.98l0.05 0q0.69-0.03 1.42-0.3q0.76-0.3 1.38-0.78q0.62-0.51 1.02-1.17q0.4-0.69 0.37-1.47q-0.03-0.75-0.37-1.22q-0.34-0.47-0.88-0.72q-0.52-0.28-1.16-0.33q-0.64-0.08-1.25-0.06q-0.48 0.02-0.95 0.09q-0.48 0.05-0.96 0.06zm0.93 13.9l-0.02 0.22q0.45 0.04 0.85 0.05q0.43 0.01 0.88-0.01q0.42-0.02 1.03-0.07q0.64-0.08 1.32-0.21q0.71-0.13 1.4-0.35q0.71-0.22 1.26-0.53q0.55-0.32 0.88-0.76q0.36-0.44 0.33-1.03q-0.01-0.32-0.13-0.61q-0.12-0.29-0.31-0.55q0.14 0.21 0.23 0.48q0.12 0.24 0.13 0.51q0.03 0.91-0.56 1.47q-0.59 0.56-1.46 0.89q-0.84 0.3-1.77 0.42q-0.93 0.12-1.59 0.14q-0.61 0.02-1.25 0.02q-0.61-0.03-1.23-0.06zm-2.61-0.17l0.19 0.05q0.02-0.94-0.02-1.91l-0.07-1.91q-0.02-0.54-0.07-1.05q-0.05-0.48-0.12-0.96q0.03 0.7 0.05 1.4q0.05 0.72 0.08 1.45q0.03 0.75 0.03 1.48q0 0.73-0.08 1.46zm4.46-7.86l0.45 0.04q0.47-0.31 0.88-0.65q0.44-0.34 0.79-0.78q-0.13 0.01-0.14-0.1q-0.79 0.94-1.99 1.5zm1.96 2.48l-0.03 0q0.8 0.1 1.72 0.45q0.78 0.29 1.41 0.7q-0.6-0.46-1.41-0.78q-0.89-0.4-1.69-0.37zm-6.62-7.68l0.24-0.01l0.17-0.44l-0.42 0.07q0 0.05 0 0.11q0.03 0.03 0.03 0.08q0 0.05-0.02 0.11q0 0.03 0 0.08zm12.37 11.82q0.24-0.71 0.22-1.33l-0.01-0.3q-0.01-0.16-0.04-0.29q0.03 0.86-0.12 1.62q-0.13 0.73-0.66 1.4q0.41-0.45 0.62-1.1zm-10.13-4.02q-0.09 0.51-0.09 1.03q-0.01 0.43 0.01 0.89q0.01-0.43 0.05-0.86q0.03-0.51 0.04-1.05zm9.45 5.18q-0.48 0.56-1.08 0.9q-0.6 0.35-1.25 0.64q0.68-0.27 1.28-0.61q0.6-0.35 1.06-0.93zm-1.05-5.98q0.25 0.21 0.47 0.41l0.39 0.36q-0.17-0.24-0.36-0.42q-0.19-0.21-0.49-0.36zm-8.42 5.75l0.05 0l-0.03-0.81q-0.02 0.22-0.04 0.4q0.01 0.19 0.02 0.4zm7.4-3.21q0.44 0.33 0.46 0.82l0 0.05q-0.1-0.48-0.46-0.87zm-0.57 2.39l0.57-0.4q-0.23 0.25-0.57 0.4zm-6.87 1.28l0.01 0.19l0.11 0l-0.01-0.19l-0.11 0zm7.83-2.5l-0.09 0.35q-0.03 0-0.03-0.05q0-0.05 0.02-0.14q0.05-0.11 0.1-0.17zm0.07-0.16l0 0.03q0 0.03-0.05 0.08l0.05-0.11z" />
	<path id="B copy" fill="#ffffff" aria-label="B"  d="m12.19 52.42l0-0.78l-0.03-0.83l0.34-0.23q-0.1-0.45-0.14-0.88q-0.04-0.46-0.06-0.91q-0.02-0.51-0.04-0.99q0.01-0.51-0.01-1.05q-0.02-0.56-0.1-1.13q-0.07-0.56-0.23-1.12l-0.16 0.01q0.08 1.42 0.19 2.79q0.13 1.37 0.19 2.79q-0.21-2.04-0.47-4.07q-0.24-2.03-0.32-4.13q-0.02-0.62 0.01-1.24q0.06-0.65 0.11-1.27l-1.74 0.52l0.02-0.08q-0.06-0.08-0.17-0.29q-0.09-0.21-0.09-0.27q-0.01-0.13 0.26-0.28q0.29-0.17 0.63-0.29q0.37-0.12 0.68-0.21q0.34-0.09 0.47-0.13l-0.09-0.32q-0.21 0.06-0.87 0.17q-0.64 0.08-1.3 0.1q-0.53 0.02-0.93-0.05q-0.4-0.07-0.41-0.33q-0.01-0.3 0.51-0.61q0.52-0.32 1.33-0.59q0.84-0.3 1.84-0.55q1-0.25 1.92-0.45q0.92-0.2 1.66-0.31q0.74-0.11 1.03-0.12q1.35-0.05 2.59 0.25q1.26 0.27 2.22 0.96q0.96 0.66 1.53 1.74q0.6 1.08 0.66 2.58q0.02 0.62-0.14 1.3q-0.16 0.65-0.54 1.28q-0.35 0.61-0.94 1.11q-0.57 0.51-1.38 0.75q1.39 0.14 2.39 0.55q1.03 0.42 1.66 1.04q0.66 0.62 0.98 1.41q0.32 0.79 0.36 1.71q0.05 1.18-0.4 2.03q-0.42 0.85-1.17 1.44q-0.75 0.59-1.72 0.95q-0.97 0.33-2.03 0.53q-1.06 0.2-2.09 0.3q-1.03 0.07-1.88 0.1q-0.21 0.01-0.82 0q-0.59 0-1.23-0.06q-0.64-0.06-1.15-0.17q-0.48-0.14-0.49-0.38l0.02-0.14q1.12 0.15 2.24 0.24q1.12 0.06 2.24 0.02q0.85-0.03 1.67-0.17q0.82-0.14 1.64-0.33q-1.48 0.33-3.1 0.39q-1.14 0.04-2.29-0.02q-1.12-0.06-2.24-0.21l0.12-0.33l-0.06-0.19q-0.08 0.03-0.24 0.04q-0.27 0.01-0.61-0.08q-0.35-0.09-0.67-0.24q-0.3-0.15-0.52-0.36q-0.22-0.21-0.23-0.42q-0.01-0.13 0.2-0.22q0.21-0.09 0.47-0.13q0.29-0.06 0.55-0.1q0.26-0.04 0.37-0.07zm2.17-13.61q0.06 0.16 0.13 0.69q0.1 0.51 0.18 1.2q0.11 0.7 0.19 1.5q0.08 0.8 0.14 1.55q0.08 0.72 0.13 1.31q0.05 0.56 0.06 0.8q0.05 1.42 0 2.85q-0.05 1.4 0 2.82q0.02 0.54 0.37 0.66q0.38 0.12 0.8 0.1q1.27-0.05 2.52-0.18q1.24-0.16 2.42-0.66l0.09 0.32q0.52-0.29 0.9-0.68q0.41-0.42 0.38-1.06q-0.03-0.73-0.5-1.22q-0.47-0.52-1.15-0.82q-0.65-0.3-1.4-0.43q-0.72-0.13-1.28-0.11q-0.05 0-0.21 0.09q-0.16 0.06-0.24 0.09q0.37 0.01 0.93 0.1q0.56 0.09 1.15 0.25q0.59 0.14 1.13 0.39q0.54 0.25 0.9 0.56q-0.52-0.38-1.41-0.62q-0.91-0.23-1.88-0.36q-0.94-0.13-1.74-0.18q-0.8-0.08-1.1-0.12l-0.25-2.98l0.05 0q0.69-0.03 1.42-0.3q0.76-0.3 1.38-0.78q0.62-0.51 1.02-1.17q0.4-0.69 0.37-1.47q-0.03-0.75-0.37-1.22q-0.34-0.47-0.88-0.72q-0.52-0.28-1.16-0.33q-0.64-0.08-1.25-0.06q-0.48 0.02-0.95 0.09q-0.48 0.05-0.96 0.06zm0.93 13.9l-0.02 0.22q0.45 0.04 0.85 0.05q0.43 0.01 0.88-0.01q0.42-0.02 1.03-0.07q0.64-0.08 1.32-0.21q0.71-0.13 1.4-0.35q0.71-0.22 1.26-0.53q0.55-0.32 0.88-0.76q0.36-0.44 0.33-1.03q-0.01-0.32-0.13-0.61q-0.12-0.29-0.31-0.55q0.14 0.21 0.23 0.48q0.12 0.24 0.13 0.51q0.03 0.91-0.56 1.47q-0.59 0.56-1.46 0.89q-0.84 0.3-1.77 0.42q-0.93 0.12-1.59 0.14q-0.61 0.02-1.25 0.02q-0.61-0.03-1.23-0.06zm-2.61-0.17l0.19 0.05q0.02-0.94-0.02-1.91l-0.07-1.91q-0.02-0.54-0.07-1.05q-0.05-0.48-0.12-0.96q0.03 0.7 0.05 1.4q0.05 0.72 0.08 1.45q0.03 0.75 0.03 1.48q0 0.73-0.08 1.46zm4.46-7.86l0.45 0.04q0.47-0.31 0.88-0.65q0.44-0.34 0.79-0.78q-0.13 0.01-0.14-0.1q-0.79 0.94-1.99 1.5zm1.96 2.48l-0.03 0q0.8 0.1 1.72 0.45q0.78 0.29 1.41 0.7q-0.6-0.46-1.41-0.78q-0.89-0.4-1.69-0.37zm-6.62-7.68l0.24-0.01l0.17-0.44l-0.42 0.07q0 0.05 0 0.11q0.03 0.03 0.03 0.08q0 0.05-0.02 0.11q0 0.03 0 0.08zm12.37 11.82q0.24-0.71 0.22-1.33l-0.01-0.3q-0.01-0.16-0.04-0.29q0.03 0.86-0.12 1.62q-0.13 0.73-0.66 1.4q0.41-0.45 0.62-1.1zm-10.13-4.02q-0.09 0.51-0.09 1.03q-0.01 0.43 0.01 0.89q0.01-0.43 0.05-0.86q0.03-0.51 0.04-1.05zm9.45 5.18q-0.48 0.56-1.08 0.9q-0.6 0.35-1.25 0.64q0.68-0.27 1.28-0.61q0.6-0.35 1.06-0.93zm-1.05-5.98q0.25 0.21 0.47 0.41l0.39 0.36q-0.17-0.24-0.36-0.42q-0.19-0.21-0.49-0.36zm-8.42 5.75l0.05 0l-0.03-0.81q-0.02 0.22-0.04 0.4q0.01 0.19 0.02 0.4zm7.4-3.21q0.44 0.33 0.46 0.82l0 0.05q-0.1-0.48-0.46-0.87zm-0.57 2.39l0.57-0.4q-0.23 0.25-0.57 0.4zm-6.87 1.28l0.01 0.19l0.11 0l-0.01-0.19l-0.11 0zm7.83-2.5l-0.09 0.35q-0.03 0-0.03-0.05q0-0.05 0.02-0.14q0.05-0.11 0.1-0.17zm0.07-0.16l0 0.03q0 0.03-0.05 0.08l0.05-0.11z" />
	<path id="B copy 2" fill="#ffffff" aria-label="B"  d="m12.19 52.42l0-0.78l-0.03-0.83l0.34-0.23q-0.1-0.45-0.14-0.88q-0.04-0.46-0.06-0.91q-0.02-0.51-0.04-0.99q0.01-0.51-0.01-1.05q-0.02-0.56-0.1-1.13q-0.07-0.56-0.23-1.12l-0.16 0.01q0.08 1.42 0.19 2.79q0.13 1.37 0.19 2.79q-0.21-2.04-0.47-4.07q-0.24-2.03-0.32-4.13q-0.02-0.62 0.01-1.24q0.06-0.65 0.11-1.27l-1.74 0.52l0.02-0.08q-0.06-0.08-0.17-0.29q-0.09-0.21-0.09-0.27q-0.01-0.13 0.26-0.28q0.29-0.17 0.63-0.29q0.37-0.12 0.68-0.21q0.34-0.09 0.47-0.13l-0.09-0.32q-0.21 0.06-0.87 0.17q-0.64 0.08-1.3 0.1q-0.53 0.02-0.93-0.05q-0.4-0.07-0.41-0.33q-0.01-0.3 0.51-0.61q0.52-0.32 1.33-0.59q0.84-0.3 1.84-0.55q1-0.25 1.92-0.45q0.92-0.2 1.66-0.31q0.74-0.11 1.03-0.12q1.35-0.05 2.59 0.25q1.26 0.27 2.22 0.96q0.96 0.66 1.53 1.74q0.6 1.08 0.66 2.58q0.02 0.62-0.14 1.3q-0.16 0.65-0.54 1.28q-0.35 0.61-0.94 1.11q-0.57 0.51-1.38 0.75q1.39 0.14 2.39 0.55q1.03 0.42 1.66 1.04q0.66 0.62 0.98 1.41q0.32 0.79 0.36 1.71q0.05 1.18-0.4 2.03q-0.42 0.85-1.17 1.44q-0.75 0.59-1.72 0.95q-0.97 0.33-2.03 0.53q-1.06 0.2-2.09 0.3q-1.03 0.07-1.88 0.1q-0.21 0.01-0.82 0q-0.59 0-1.23-0.06q-0.64-0.06-1.15-0.17q-0.48-0.14-0.49-0.38l0.02-0.14q1.12 0.15 2.24 0.24q1.12 0.06 2.24 0.02q0.85-0.03 1.67-0.17q0.82-0.14 1.64-0.33q-1.48 0.33-3.1 0.39q-1.14 0.04-2.29-0.02q-1.12-0.06-2.24-0.21l0.12-0.33l-0.06-0.19q-0.08 0.03-0.24 0.04q-0.27 0.01-0.61-0.08q-0.35-0.09-0.67-0.24q-0.3-0.15-0.52-0.36q-0.22-0.21-0.23-0.42q-0.01-0.13 0.2-0.22q0.21-0.09 0.47-0.13q0.29-0.06 0.55-0.1q0.26-0.04 0.37-0.07zm2.17-13.61q0.06 0.16 0.13 0.69q0.1 0.51 0.18 1.2q0.11 0.7 0.19 1.5q0.08 0.8 0.14 1.55q0.08 0.72 0.13 1.31q0.05 0.56 0.06 0.8q0.05 1.42 0 2.85q-0.05 1.4 0 2.82q0.02 0.54 0.37 0.66q0.38 0.12 0.8 0.1q1.27-0.05 2.52-0.18q1.24-0.16 2.42-0.66l0.09 0.32q0.52-0.29 0.9-0.68q0.41-0.42 0.38-1.06q-0.03-0.73-0.5-1.22q-0.47-0.52-1.15-0.82q-0.65-0.3-1.4-0.43q-0.72-0.13-1.28-0.11q-0.05 0-0.21 0.09q-0.16 0.06-0.24 0.09q0.37 0.01 0.93 0.1q0.56 0.09 1.15 0.25q0.59 0.14 1.13 0.39q0.54 0.25 0.9 0.56q-0.52-0.38-1.41-0.62q-0.91-0.23-1.88-0.36q-0.94-0.13-1.74-0.18q-0.8-0.08-1.1-0.12l-0.25-2.98l0.05 0q0.69-0.03 1.42-0.3q0.76-0.3 1.38-0.78q0.62-0.51 1.02-1.17q0.4-0.69 0.37-1.47q-0.03-0.75-0.37-1.22q-0.34-0.47-0.88-0.72q-0.52-0.28-1.16-0.33q-0.64-0.08-1.25-0.06q-0.48 0.02-0.95 0.09q-0.48 0.05-0.96 0.06zm0.93 13.9l-0.02 0.22q0.45 0.04 0.85 0.05q0.43 0.01 0.88-0.01q0.42-0.02 1.03-0.07q0.64-0.08 1.32-0.21q0.71-0.13 1.4-0.35q0.71-0.22 1.26-0.53q0.55-0.32 0.88-0.76q0.36-0.44 0.33-1.03q-0.01-0.32-0.13-0.61q-0.12-0.29-0.31-0.55q0.14 0.21 0.23 0.48q0.12 0.24 0.13 0.51q0.03 0.91-0.56 1.47q-0.59 0.56-1.46 0.89q-0.84 0.3-1.77 0.42q-0.93 0.12-1.59 0.14q-0.61 0.02-1.25 0.02q-0.61-0.03-1.23-0.06zm-2.61-0.17l0.19 0.05q0.02-0.94-0.02-1.91l-0.07-1.91q-0.02-0.54-0.07-1.05q-0.05-0.48-0.12-0.96q0.03 0.7 0.05 1.4q0.05 0.72 0.08 1.45q0.03 0.75 0.03 1.48q0 0.73-0.08 1.46zm4.46-7.86l0.45 0.04q0.47-0.31 0.88-0.65q0.44-0.34 0.79-0.78q-0.13 0.01-0.14-0.1q-0.79 0.94-1.99 1.5zm1.96 2.48l-0.03 0q0.8 0.1 1.72 0.45q0.78 0.29 1.41 0.7q-0.6-0.46-1.41-0.78q-0.89-0.4-1.69-0.37zm-6.62-7.68l0.24-0.01l0.17-0.44l-0.42 0.07q0 0.05 0 0.11q0.03 0.03 0.03 0.08q0 0.05-0.02 0.11q0 0.03 0 0.08zm12.37 11.82q0.24-0.71 0.22-1.33l-0.01-0.3q-0.01-0.16-0.04-0.29q0.03 0.86-0.12 1.62q-0.13 0.73-0.66 1.4q0.41-0.45 0.62-1.1zm-10.13-4.02q-0.09 0.51-0.09 1.03q-0.01 0.43 0.01 0.89q0.01-0.43 0.05-0.86q0.03-0.51 0.04-1.05zm9.45 5.18q-0.48 0.56-1.08 0.9q-0.6 0.35-1.25 0.64q0.68-0.27 1.28-0.61q0.6-0.35 1.06-0.93zm-1.05-5.98q0.25 0.21 0.47 0.41l0.39 0.36q-0.17-0.24-0.36-0.42q-0.19-0.21-0.49-0.36zm-8.42 5.75l0.05 0l-0.03-0.81q-0.02 0.22-0.04 0.4q0.01 0.19 0.02 0.4zm7.4-3.21q0.44 0.33 0.46 0.82l0 0.05q-0.1-0.48-0.46-0.87zm-0.57 2.39l0.57-0.4q-0.23 0.25-0.57 0.4zm-6.87 1.28l0.01 0.19l0.11 0l-0.01-0.19l-0.11 0zm7.83-2.5l-0.09 0.35q-0.03 0-0.03-0.05q0-0.05 0.02-0.14q0.05-0.11 0.1-0.17zm0.07-0.16l0 0.03q0 0.03-0.05 0.08l0.05-0.11z" />
	<path id="C " fill="#ffffff" aria-label="C
"  d="m52.01 51.46l0.42 0.44q-0.03 0.67-0.49 1.2q-0.43 0.5-1.11 0.88q-0.65 0.35-1.42 0.54q-0.74 0.19-1.35 0.21q-1.81 0.07-3.27-0.74q-1.47-0.83-2.53-2.16q-1.06-1.36-1.71-3.03q-0.62-1.62-0.76-3.2q0.12 1.64 0.74 3.28q0.65 1.7 1.71 3.05q1.06 1.36 2.56 2.19q1.49 0.8 3.33 0.73q1.01-0.04 1.95-0.4q0.94-0.36 1.75-0.95q-0.57 0.96-1.57 1.4q-0.99 0.44-2.06 0.48q-1.2 0.05-2.22-0.24q-1.02-0.31-2.01-1l-0.12-0.43q-1.11-0.63-1.95-1.59q-0.81-0.96-1.36-2.1q-0.52-1.14-0.81-2.39q-0.26-1.25-0.31-2.52q-0.05-1.34 0.14-2.67q0.21-1.35 0.62-2.66q-0.11 0-0.11-0.08q-0.51 1.26-0.73 2.58q-0.22 1.33-0.16 2.7q0.1 2.61 1.2 4.98q1.1 2.35 3.16 3.94q-1.07-0.77-1.9-1.78q-0.81-1.02-1.36-2.18q-0.55-1.19-0.87-2.47q-0.29-1.28-0.34-2.6q-0.07-1.77 0.34-3.62q0.43-1.87 1.36-3.41q0.95-1.54 2.4-2.54q1.45-1.02 3.44-1.1q0.9-0.03 1.71 0.23q0.83 0.26 1.57 0.72q0.74 0.46 1.37 1.05q0.66 0.59 1.24 1.22l-0.54 0.5q-0.38-0.12-0.73-0.38q-0.33-0.28-0.61-0.57l-0.15 0.19q0.36 0.39 0.67 0.92q0.31 0.5 0.33 1.06l-0.27 0.49q-0.35-0.01-0.89-0.37q-0.52-0.38-1.17-0.79q-0.63-0.43-1.31-0.78q-0.65-0.35-1.26-0.33q-0.8 0.03-1.42 0.46q-0.6 0.43-1.08 1.09q-0.48 0.66-0.82 1.51q-0.31 0.85-0.52 1.71q-0.18 0.87-0.28 1.71q-0.08 0.81-0.05 1.43q0.04 1.05 0.41 2.3q0.39 1.25 1.07 2.33q0.71 1.05 1.69 1.74q0.98 0.69 2.21 0.64q0.56-0.02 1.14-0.15q0.61-0.16 1.07-0.47l0.22 0.23q-0.98 0.82-2.28 0.87q-1.27 0.05-2.36-0.53q0.52 0.33 1.13 0.47q0.67 0.16 1.34 0.14q1.22-0.05 2.26-0.79l0.25 0.34q0.25-0.31 0.64-0.59q0.39-0.31 0.81-0.38zm-9.94-4.57q0.19 1.55 1.02 2.95q0.82 1.37 2.1 2.18q-1.28-0.84-2.05-2.21q-0.8-1.39-1.07-2.92z" />
	<path id="C" fill="#ffffff" aria-label="C
"  d="m53.87 51.46l0.48 0.44q-0.03 0.67-0.56 1.2q-0.49 0.5-1.27 0.88q-0.74 0.35-1.62 0.54q-0.84 0.19-1.54 0.21q-2.06 0.07-3.74-0.74q-1.68-0.83-2.89-2.16q-1.21-1.36-1.96-3.03q-0.71-1.62-0.87-3.2q0.13 1.64 0.84 3.28q0.74 1.7 1.96 3.05q1.21 1.36 2.92 2.19q1.71 0.8 3.8 0.73q1.15-0.04 2.23-0.4q1.08-0.36 1.99-0.95q-0.66 0.96-1.79 1.4q-1.14 0.44-2.35 0.48q-1.37 0.05-2.53-0.24q-1.17-0.31-2.29-1l-0.14-0.43q-1.27-0.63-2.23-1.59q-0.92-0.96-1.55-2.1q-0.6-1.14-0.93-2.39q-0.3-1.25-0.35-2.52q-0.06-1.34 0.16-2.67q0.24-1.35 0.7-2.66q-0.12 0-0.12-0.08q-0.58 1.26-0.83 2.58q-0.25 1.33-0.19 2.7q0.11 2.61 1.37 4.98q1.26 2.35 3.61 3.94q-1.22-0.77-2.18-1.78q-0.93-1.02-1.55-2.18q-0.63-1.19-0.99-2.47q-0.33-1.28-0.39-2.6q-0.08-1.77 0.39-3.62q0.5-1.87 1.55-3.41q1.09-1.54 2.75-2.54q1.66-1.02 3.93-1.1q1.03-0.03 1.96 0.23q0.95 0.26 1.79 0.72q0.84 0.46 1.57 1.05q0.76 0.59 1.42 1.22l-0.62 0.5q-0.43-0.12-0.84-0.38q-0.38-0.28-0.69-0.57l-0.17 0.19q0.41 0.39 0.77 0.92q0.36 0.5 0.38 1.06l-0.31 0.49q-0.4-0.01-1.02-0.37q-0.59-0.38-1.34-0.79q-0.72-0.43-1.49-0.78q-0.74-0.35-1.44-0.33q-0.91 0.03-1.62 0.46q-0.68 0.43-1.23 1.09q-0.55 0.66-0.94 1.51q-0.36 0.85-0.59 1.71q-0.21 0.87-0.32 1.71q-0.09 0.81-0.06 1.43q0.05 1.05 0.47 2.3q0.45 1.25 1.23 2.33q0.81 1.05 1.93 1.74q1.12 0.69 2.52 0.64q0.64-0.02 1.3-0.15q0.69-0.16 1.23-0.47l0.25 0.23q-1.12 0.82-2.61 0.87q-1.46 0.05-2.7-0.53q0.59 0.33 1.3 0.47q0.77 0.16 1.53 0.14q1.4-0.05 2.58-0.79l0.29 0.34q0.29-0.31 0.73-0.59q0.44-0.31 0.93-0.38zm-11.36-4.57q0.22 1.55 1.16 2.95q0.94 1.37 2.41 2.18q-1.47-0.84-2.35-2.21q-0.91-1.39-1.22-2.92z" />
</svg>