<?xml version="1.0" ?><svg id="Target" viewBox="0 0 64 64" xmlns="http://www.w3.org/2000/svg"><defs><style>.cls-1{fill:#f64f7d;}.cls-2{fill:#f8e157;}.cls-3{fill:#bec7d6;}.cls-4{fill:#4f9ff6;}</style></defs><path class="cls-1" d="M32,33.92A11.33,11.33,0,0,0,21.76,40.4a13.24,13.24,0,0,0,20.47,0h0A11.3,11.3,0,0,0,32,33.92Z"/><path class="cls-2" d="M32,18.76A13.24,13.24,0,0,0,21.77,40.4,11.3,11.3,0,0,1,32,33.92h0A11.3,11.3,0,0,1,42.23,40.4h0l0,0a15,15,0,0,0,3-8.37A13.24,13.24,0,0,0,32,18.76Z"/><path class="cls-3" d="M53.19,33.92A21.27,21.27,0,0,1,33.92,53.18v3.38A24.64,24.64,0,0,0,56.56,33.92Z"/><path class="cls-3" d="M7.44,33.92A24.64,24.64,0,0,0,30.08,56.56V53.19A21.27,21.27,0,0,1,10.82,33.92Z"/><path class="cls-3" d="M30.08,7.44A24.64,24.64,0,0,0,7.44,30.08h3.37A21.27,21.27,0,0,1,30.08,10.82Z"/><path class="cls-3" d="M33.92,7.44v3.37A21.27,21.27,0,0,1,53.18,30.08h3.38A24.64,24.64,0,0,0,33.92,7.44Z"/><path class="cls-4" d="M32,4a1.92,1.92,0,0,1,1.92,1.92v7.32a1.92,1.92,0,0,1-3.84,0V5.92A1.92,1.92,0,0,1,32,4Z"/><path class="cls-4" d="M60,32a1.92,1.92,0,0,1-1.92,1.92H50.76a1.92,1.92,0,1,1,0-3.84h7.32A1.92,1.92,0,0,1,60,32Z"/><path class="cls-4" d="M15.16,32a1.92,1.92,0,0,1-1.92,1.92H5.92a1.92,1.92,0,1,1,0-3.84h7.32A1.92,1.92,0,0,1,15.16,32Z"/><circle class="cls-1" cx="32" cy="26.16" r="3.92"/><path class="cls-4" d="M32,48.84a1.92,1.92,0,0,1,1.92,1.92v7.32a1.92,1.92,0,0,1-3.84,0V50.76A1.92,1.92,0,0,1,32,48.84Z"/></svg>