<svg version="1.2" baseProfile="tiny-ps" xmlns="http://www.w3.org/2000/svg" viewBox="0 0 64 64" width="64" height="64">
	<title>Nuevo proyecto</title>
	<style>
		tspan { white-space:pre }
		.s0 { fill: none;stroke: #009bff;stroke-width: 4.5 } 
		.s1 { fill: #ed12a7 } 
		.s2 { fill: #0fd262 } 
		.s3 { fill: #ffaf00 } 
	</style>
	<path id="Capa 1" class="s0" d="m21 32.69c-0.18-15.85 5.12-28.74 11.86-28.84c6.74-0.1 12.34 12.62 12.52 28.47c0.18 15.85-5.12 28.74-11.86 28.84c-6.74 0.1-12.34-12.62-12.52-28.47z" />
	<path id="Capa 1 copy 5" class="s0" d="m21 32.69c-0.18-15.85 5.12-28.74 11.86-28.84c6.74-0.1 12.34 12.62 12.52 28.47c0.18 15.85-5.12 28.74-11.86 28.84c-6.74 0.1-12.34-12.62-12.52-28.47z" />
	<path id="Capa 1 copy" class="s0" d="m26.9 22.06c13.61-8.13 27.42-10.03 30.89-4.26c3.48 5.77-4.71 17.01-18.32 25.14c-13.61 8.13-27.42 10.03-30.89 4.26c-3.48-5.77 4.71-17.01 18.32-25.14z" />
	<path id="Capa 1 copy 3" class="s0" d="m26.9 22.06c13.61-8.13 27.42-10.03 30.89-4.26c3.48 5.77-4.71 17.01-18.32 25.14c-13.61 8.13-27.42 10.03-30.89 4.26c-3.48-5.77 4.71-17.01 18.32-25.14z" />
	<path id="Capa 1 copy 2" class="s0" d="m27.44 43.25c-13.94-7.53-22.65-18.42-19.46-24.36c3.18-5.94 17.02-4.66 30.97 2.87c13.94 7.53 22.65 18.42 19.46 24.36c-3.18 5.94-17.02 4.66-30.97-2.87z" />
	<path id="Capa 1 copy 4" class="s0" d="m27.44 43.25c-13.94-7.53-22.65-18.42-19.46-24.36c3.18-5.94 17.02-4.66 30.97 2.87c13.94 7.53 22.65 18.42 19.46 24.36c-3.18 5.94-17.02 4.66-30.97-2.87z" />
	<path id="Capa 2 copy" class="s1" d="m33.5 38c-3.59 0-6.5-2.91-6.5-6.5c0-3.59 2.91-6.5 6.5-6.5c3.59 0 6.5 2.91 6.5 6.5c0 3.59-2.91 6.5-6.5 6.5z" />
	<path id="Capa 2 copy 2" class="s2" d="m45 59c-3.87 0-7-3.13-7-7c0-3.87 3.13-7 7-7c3.87 0 7 3.13 7 7c0 3.87-3.13 7-7 7z" />
	<path id="Capa 2" class="s3" d="m46 21c-3.87 0-7-3.13-7-7c0-3.87 3.13-7 7-7c3.87 0 7 3.13 7 7c0 3.87-3.13 7-7 7z" />
</svg>