<svg width="512" height="512" xmlns="http://www.w3.org/2000/svg">

 <g>
  <title>background</title>
  <rect fill="none" id="canvas_background" height="514" width="514" y="-1" x="-1"/>
 </g>
 <g>
  <title>Layer 1</title>
  <rect id="svg_1" fill="#b73131" y="368" x="319.163399" width="152" height="40"/>
  <rect id="svg_2" fill="#b73131" y="176" x="319.163399" width="128" height="160"/>
  <rect id="svg_3" fill="#b73131" y="215.163399" x="64" width="128" height="216"/>
  <rect id="svg_4" fill="#e86e55" y="248" x="23.163399" width="128" height="184"/>
  <rect id="svg_5" fill="#ffd4aa" y="280" x="24" width="96" height="32"/>
  <rect id="svg_6" fill="#56aaff" y="280" x="48" width="16" height="32"/>
  <rect id="svg_7" fill="#56aaff" y="280" x="80.836601" width="16" height="32"/>
  <rect id="svg_8" fill="#e86e55" y="80" x="191.163399" width="128" height="352"/>
  <rect id="svg_9" fill="#e86e55" y="184" x="39.163399" width="152" height="32"/>
  <rect id="svg_10" fill="#ffd4aa" y="336" x="319.163399" width="168" height="32"/>
  <polygon id="svg_12" fill="#ffd4aa" points="192 152 56 152 64 168 64 184 192 184 192 152"/>
  <rect id="svg_13" fill="#56aaff" y="152" x="88.836601" width="16" height="32"/>
  <rect id="svg_14" fill="#56aaff" y="152" x="120.836601" width="16" height="32"/>
  <rect id="svg_15" fill="#56aaff" y="152.836601" x="152" width="16" height="32"/>
  <rect id="svg_16" fill="#e86e55" y="120" x="111.163399" width="80" height="32"/>
  <rect id="svg_17" fill="#e86e55" y="368" x="464" width="24" height="64"/>
  <rect id="svg_18" fill="#ffd4aa" y="200" x="344" width="16" height="16"/>
  <rect id="svg_19" fill="#ffd4aa" y="200" x="376" width="16" height="16"/>
  <rect id="svg_20" fill="#ffd4aa" y="200" x="408" width="16" height="16"/>
  <rect id="svg_21" fill="#ffd4aa" y="232" x="344" width="16" height="16"/>
  <rect id="svg_22" fill="#ffd4aa" y="232" x="376" width="16" height="16"/>
  <rect id="svg_23" fill="#ffd4aa" y="232" x="408" width="16" height="16"/>
  <rect id="svg_24" fill="#ffd4aa" y="264" x="344" width="16" height="16"/>
  <rect id="svg_25" fill="#ffd4aa" y="264" x="376" width="16" height="16"/>
  <rect id="svg_26" fill="#ffd4aa" y="264" x="408" width="16" height="16"/>
  <rect id="svg_27" fill="#ffd4aa" y="296" x="344" width="16" height="16"/>
  <rect id="svg_28" fill="#ffd4aa" y="296" x="376" width="16" height="16"/>
  <rect id="svg_29" fill="#ffd4aa" y="296" x="408" width="16" height="16"/>
  <rect id="svg_30" fill="#e86e55" y="136" x="375.163399" width="56" height="40"/>
  <rect id="svg_31" fill="#ffd4aa" y="152" x="344" width="32" height="24"/>
  <rect id="svg_32" fill="#b73131" y="375.163399" x="240" width="32" height="56"/>
  <rect id="svg_33" fill="#ffd4aa" y="344" x="24" width="96" height="32"/>
  <rect id="svg_34" fill="#56aaff" y="344" x="48" width="16" height="32"/>
  <rect id="svg_35" fill="#56aaff" y="344" x="80" width="16" height="32"/>
  <rect id="svg_36" fill="#e86e55" y="368" x="407.163399" width="24" height="64"/>
  <rect id="svg_37" fill="#e86e55" y="368" x="352" width="24" height="64"/>
  <metadata transform="matrix(0.271794476458215,0,0,0.271794476458215,0,0) " id="svg_103">image/svg+xml</metadata>
  <defs>
   <style>.cls-1{fill:#606060;}.cls-2{fill:none;stroke:#fff;stroke-width:11px;}.cls-2,.cls-4{stroke-miterlimit:10;}.cls-3,.cls-4{fill:#dd2026;}.cls-4{stroke:#ffce00;stroke-width:2px;}.cls-5{fill:#fff;}.cls-6{fill:#ffb31a;}.cls-7{fill:#c1c0bd;}.cls-8{fill:#00ca45;}.cls-9{fill:#008ae7;}</style>
  </defs>
  <g transform="matrix(0.271794476458215,0,0,0.271794476458215,0,0) " id="svg_73">
   <g id="svg_74">
    <circle id="svg_102" r="181.5" cy="597.03891" cx="935.626102" class="cls-1"/>
    <path id="svg_101" d="m801.126102,519.43891l0,16.66c0.22,1.05 0.22,7.38 0.22,9.28a47.1,47.1 0 0 0 0.86,9.49c1.92,18.78 3.92,32.07 9.49,50.84a193.08,193.08 0 0 0 26.75,55.47a181.81,181.81 0 0 0 34.94,38.36c1.94,1.9 3.88,3.16 5.82,4.85s10.14,7.59 12.3,9.28l6.47,4.43a251.37,251.37 0 0 0 27.61,15.82a61.15,61.15 0 0 0 7.54,3.62c1.08,0 19,-10.55 20.28,-11.39c2.16,-1.48 4.75,-2.74 6.47,-4.43c3.88,-2.74 8.41,-5.48 12.3,-8.44c12.51,-8.65 22.22,-17.93 33.65,-28.9l5,-5.48a192.7,192.7 0 0 0 28.9,-42.4a208.34,208.34 0 0 0 19.2,-60.11a115.63,115.63 0 0 0 2.16,-17.08l1.04,-17.93l0,0l0,-15.19l-0.22,-5.91c-2.59,0 -6,0.84 -8.84,0.84c-3.24,0 -6,0.21 -9.49,0c-21.79,-2.1 -17.45,-20.45 -16.61,-34.58c-1.08,0 -8.41,3.59 -10.14,3.8c-26.32,9.91 -55.65,14.34 -84.77,15c-31.71,0 -61.69,-4.64 -89.52,-16.66a19.47,19.47 0 0 0 -5,-2.11c0.22,5.69 1.08,10.55 0.86,16.24c-0.22,4.85 -1.94,9.91 -4.75,13.08s-7.52,4.82 -13.52,5.45c-3.24,0 -6.47,0 -9.71,-0.21c-2.82,-0.84 -8.43,-1.9 -9.29,-1.69z" class="cls-2"/>
    <path id="svg_100" d="m804.906102,522.53891c-0.23,49.55 7.91,91.42 34,133.76c2.79,4.19 6,8.37 9.07,12.56a188.92,188.92 0 0 0 31.87,33.5c4,3 7.91,6.28 12.1,9.54c6.28,5.12 12.79,9.07 19.77,13.26c7.44,4.89 13.49,7.91 21.4,12.1c1.63,0.93 1.16,0.23 3.49,-0.93c23,-12.56 45.83,-28.85 63.27,-46.76a245.85,245.85 0 0 0 27,-33c18.84,-29.78 27.92,-59.32 31.87,-94.45c1.16,-9.54 1.16,-19.77 1.16,-29.78c0,-3 0,-7 -0.23,-10.24c-13.26,0 -21.87,-0.93 -30,-6.51c-8.14,-6.28 -9.31,-15.35 -9.31,-24.66l-9.31,3c-3,1.16 -6.51,2.09 -9.54,3c-36.56,10.48 -78.9,12.61 -117.29,5.37a159.3,159.3 0 0 1 -35.1,-10.24c-1.16,-0.23 -3.49,-1.63 -4.89,-2.09c-0.23,5.35 0,9.54 -2.09,14.66c-3,8.37 -9.54,13.49 -19.77,15.59c-7.93,3.48 -10.49,2.08 -17.47,2.32z" class="cls-3"/>
    <path id="svg_99" d="m1065.216102,519.97891c0.93,30.94 -0.93,56.3 -9.31,85.84c-5.35,18.84 -15.59,41.64 -27.22,58.39c-2.09,2.33 -3,4.89 -5.12,7a173.13,173.13 0 0 1 -11.44,13.47c-8.37,9.54 -22.1,22.56 -32.8,30.24l-14.42,10.47c-3.49,2.33 -12.1,7.91 -15.59,10.24c-2.79,1.63 -5.35,3 -8.14,4.89c-1.63,0.93 -2.79,1.63 -4.19,2.33c-2.79,1.16 -2.33,2.09 -4.19,0.93c-2.79,-1.63 -6,-2.79 -8.37,-4.19a298.79,298.79 0 0 1 -31.4,-19.54a246.4,246.4 0 0 1 -38.15,-34.2l-12.52,-15.6c-11.4,-15.35 -18.84,-30.24 -26.05,-47.92c-10.93,-26.52 -16.52,-60.95 -16.75,-91.19l0,-6c0,-7.44 -0.93,-6.28 2.33,-6.28c3,0.23 6.51,0.23 9.54,0.23c11.4,-0.23 20.47,-4.19 24.89,-13.49a26.86,26.86 0 0 0 2.81,-9.35c0.93,-5.12 0,-9.07 0.23,-11.4l9.31,4c40.24,15.35 93.05,16.52 134.92,8.14a294.16,294.16 0 0 0 32.78,-8.45l10.24,-4c0,2.79 -0.23,5.35 0,8.37c1.16,12.1 6.51,20.94 20.7,24.66c7.91,2.56 10.93,1.86 17.91,2.33l0,0.08zm-272.64,-7.91l0,18.37c0.23,1.16 0.23,8.14 0.23,10.24a53.09,53.09 0 0 0 0.93,10.47c2.09,20.7 4.19,35.36 10.24,56.06a215,215 0 0 0 28.85,61.18a199,199 0 0 0 37.69,42.34c2.09,2.09 4.19,3.49 6.28,5.35s10.93,8.37 13.26,10.24l7,4.89a269.62,269.62 0 0 0 29.78,17.45a65.31,65.31 0 0 0 8.14,4c1.16,0 20.47,-11.63 21.87,-12.56c2.33,-1.63 5.12,-3 7,-4.89c4.19,-3 9.07,-6 13.26,-9.31c13.49,-9.54 24,-19.77 36.29,-31.87l5.35,-6a212.81,212.81 0 0 0 31.17,-46.76a233.51,233.51 0 0 0 20.7,-66.3a130.28,130.28 0 0 0 2.33,-18.84l1.16,-19.77l0,0l0,-16.82l-0.23,-6.51c-2.79,0 -6.51,0.93 -9.54,0.93c-3.49,0 -6.51,0.23 -10.24,0c-23.5,-2.33 -18.84,-22.56 -17.91,-38.15c-1.16,0 -9.07,4 -10.93,4.19c-28.38,10.93 -60,15.82 -91.42,16.52c-34.2,0 -66.53,-5.12 -96.54,-18.38a20.75,20.75 0 0 0 -5.35,-2.33c0.23,6.28 1.16,11.63 0.93,17.91c-0.23,5.35 -2.09,10.93 -5.12,14.42s-8.14,5.35 -14.66,6c-3.49,0 -7,0 -10.47,-0.23c-3.07,-0.91 -9.12,-2.08 -10.05,-1.84z" class="cls-4"/>
    <path id="svg_98" d="m1039.626102,609.06891l-210.5,0c0.23,2.09 7.91,15.59 9.07,17.45a134,134 0 0 0 10.24,16.75c4.19,6.28 7,10.24 11.4,15.82c2.09,2.79 4.19,5.12 6,7.44l6.28,7.44c2.33,2.33 4.19,4.89 6.51,7a205.09,205.09 0 0 0 19.77,17.91c0.93,0.23 1.16,1.16 2.09,1.63a202.39,202.39 0 0 0 24.89,16.75c1.16,0.93 8.37,4.89 9.31,4.89c1.16,0 16.52,-9.07 17.91,-10.24c18.61,-12.1 30.24,-22.1 44.66,-37.69a343.27,343.27 0 0 0 23.73,-30.94l5.12,-8.14a178.14,178.14 0 0 0 11.63,-21.87a8.62,8.62 0 0 0 1.86,-4.19l0.03,-0.01z" class="cls-5"/>
    <path id="svg_97" d="m894.926102,609.06891a10.07,10.07 0 0 0 1.16,2.79c0.23,0.93 2.09,0.93 3,1.16c2.33,0.23 4,1.16 6.28,1.63l9.54,2.79c0.93,0.23 2.33,0.23 2.79,1.16l-21.4,-4.89c0.23,0.93 1.16,1.16 2.09,2.09a6.41,6.41 0 0 0 2.09,1.63l17.45,4.89c-0.23,0.23 -1.16,0 -2.09,0s-1.4,-0.23 -2.33,-0.23a58.4,58.4 0 0 0 -12.79,-1.63a12.45,12.45 0 0 0 3.49,4.19c1.4,0.23 12.56,1.16 15.35,1.63a15.4,15.4 0 0 1 3.57,0.26c0.23,0.23 1.4,1.63 1.4,2.33l-18.61,-2.79l2.33,4c0.23,0.23 15.35,2.09 18.38,2.33c2.33,0.23 3,0.93 3.49,2.79l-18.38,-2.33c0,1.16 0.23,2.79 0.93,3.49c0.23,0.23 0,0.23 0.23,0.23l20.94,1.16c-0.23,0.93 -2.79,2.09 -3.49,2.79c-1.16,0.93 -4.19,0.23 -6,0.23l0,-2.09c-1.16,0.23 -1.63,0.93 -2.79,0.93c-2.09,0 -5.12,0 -7.44,-0.23c-2.33,0 -3.49,-4 -5.35,-4.89c-1.16,-0.23 -4.89,-1.63 -5.35,-1.63c0.93,1.63 3,2.79 4.19,4c-3.49,-1.16 -6.51,-4 -9.54,-5.12a5.19,5.19 0 0 0 -2.33,2.09c1.4,1.16 6,2.79 7.91,3.49c4,1.63 6.51,2.09 6.28,5.12l-12.1,-4.89c0,2.09 0.23,2.09 2.09,2.79a9.6,9.6 0 0 0 3.49,1.63a55.08,55.08 0 0 1 6.51,3.49c0,3.49 -0.93,2.09 -2.33,4l1.16,2.09c0.93,-0.23 2.79,-2.79 3.49,-3.49l3.49,-3.49l-0.93,-4c1.63,0 5.35,0.93 7,1.16c4.89,1.16 2.33,0.23 6,0a30.56,30.56 0 0 1 1.16,3.49c-3.49,2.33 -7.91,4 -12.56,6l-25.19,11.32c-4,1.63 -2.79,2.09 -6.28,0c-1.63,-0.93 -4.19,-2.79 -6,-3c0.23,-1.16 1.63,-2.09 2.09,-3c-1.63,-0.23 -3,-1.63 -4.89,-2.09c0.23,0.93 0.23,0.23 0.93,1.16c-1.16,0.93 -5.12,4 -5.35,5.12a59.67,59.67 0 0 1 9.31,4.89c1.63,0.93 3,2.09 4.89,2.33a5.73,5.73 0 0 0 2.79,-0.23l12.1,-6a23.83,23.83 0 0 1 4.89,-2.33a31.53,31.53 0 0 1 4.89,-2.33c-1.63,1.16 -5.35,3 -7,4c-4.89,2.79 -9.54,5.12 -14.42,8.14a57.7,57.7 0 0 0 -7.44,4l3,7.91c1.4,-0.23 23.5,-15.82 27.22,-18.38c-0.93,0.93 -2.33,1.63 -3,2.33a30.31,30.31 0 0 1 -3.49,2.33l-6.51,4.89c-4.89,3 -9.07,6.51 -13.26,9.54c0.23,0.93 6,6.51 6.51,7a49.34,49.34 0 0 0 3.49,-3.49a36.82,36.82 0 0 0 3,-3c6.28,-6.28 12.56,-12.56 18.61,-18.38c1.16,-0.93 1.16,-1.63 1.63,-0.93c-1.16,0.93 -5.35,6 -6.28,6.51c-2.09,2.33 -4,4.19 -6.28,6.51l-12.1,13.49a24.15,24.15 0 0 0 4,2.79c1.16,0.7 3,2.33 4.19,2.79a35,35 0 0 0 2.33,-4a16.13,16.13 0 0 0 2.33,-4c2.09,-2.79 3.49,-5.12 5.12,-7.44c1.16,-2.09 8.37,-13.26 10.24,-14.66l-18.38,31.4l11.63,4c0.93,-1.63 8.37,-27 10.24,-30.94c0.93,-2.09 2.79,-9.07 3.49,-10.24l-4.89,40.71l15.27,-0.4a26.71,26.71 0 0 0 0.23,-4.19c0.23,-1.63 1.63,-1.63 1.63,-3l-6,-0.23l-0.93,4l0,0c-1.63,0 -4.89,-0.23 -6.28,-0.93l-0.23,0c0,-4 0.93,-8.14 1.16,-11.63c0.93,-7.91 1.63,-15.59 2.33,-23.5a12.29,12.29 0 0 1 0.23,-3c0.23,-1.63 3,-4.89 4.19,-6c0.23,0.23 1.63,6.28 2.09,7.44c0.23,2.09 0.93,6 0.23,8.14l-5.35,1.05l1.16,2.09l4.19,0c0,3 -1.63,1.16 0.23,5.12c0.23,1.16 2.09,4.19 2.33,4.89l2.33,0c0,-1.16 -0.93,-3 -1.16,-4.19c1.16,1.16 0.23,1.16 2.09,2.09c0.93,0.23 1.63,1.16 2.79,1.63c-0.23,-3 -3,-5.12 -3,-6.28c1.16,0.23 4,4 5.35,4.19c-0.23,-3 -3,-4.89 -5.12,-6.51c-1.4,-1.16 -2.33,-1.63 -2.33,-3.49l0,-5.35c0,-2.79 -2.33,-9.54 -2.33,-12.1c0,-1.16 3.49,-4.19 4,-4.89c0.93,0.93 7.91,19.54 9.31,23.5c0,0.23 0,0.23 0.23,0.93l0.23,0.93c0.23,0 5.35,-2.09 5.35,-2.09c-0.93,-2.33 -7.44,-13.49 -9.07,-16.75c-0.93,-1.63 -3,-4 -1.16,-5.35a44.74,44.74 0 0 0 4.08,6.48c1.16,2.09 11.63,18.38 12.79,19.77c0.23,0.23 0,0.23 0.23,0.23c1.16,-0.23 2.79,-1.63 3.49,-2.09c-0.23,-1.63 -8.14,-10.93 -9.31,-12.56l-7,-9.07c-0.93,-0.93 -1.63,-2.33 -2.33,-3l0.93,-0.93c1.63,1.63 13.49,17.45 15.82,20.47c1.63,2.09 4.19,4.89 5.12,7c1.16,0 2.79,-0.93 4,-0.93c-0.23,-0.93 -14.66,-17.91 -17.21,-20.7c-0.93,-0.93 -0.93,-0.93 0,-1.63c1.16,0 0.23,-0.23 1.16,0.23l2.09,2.09c2.33,2.79 4.89,5.35 7,7.91c1.63,1.63 8.14,9.07 9.31,10.47l2.79,0c-0.93,-2.09 -14.42,-16.75 -15.35,-18.38l1.63,0c2.09,1.63 3.49,4 5.12,5.35a53.3,53.3 0 0 0 4.89,5.35l7.44,8.14c1.16,1.16 1.16,2.09 3,2.09c0,-1.16 -3.49,-4.19 -4.89,-5.35l-13.49,-15.82a56.82,56.82 0 0 0 -5.35,-5.12a53.3,53.3 0 0 1 -5.35,-4.89c-2.09,-1.63 -0.93,-0.93 -4,-1.16c-1.63,0 -2.33,-1.16 -3,-2.09c-1.63,-1.63 -4,-2.79 -4,-6l0.93,-0.93l2.33,0c2.33,-2.79 0,-2.79 2.33,-5.12l10.93,-12.56s-0.23,-0.93 -1.63,0l-12.52,11.58c-1.16,1.16 -1.16,0.93 -3,0.93a31.15,31.15 0 0 1 -1.4,2.79c-0.93,1.63 -1.16,1.16 -2.79,2.09c-3,-1.63 -23.73,-17.91 -26.05,-18.61a150.76,150.76 0 0 0 -14.66,-4c-2.58,2.15 -5.6,1.22 -7.7,0.98z" class="cls-3"/>
    <path id="svg_96" d="m886.556102,511.13891l93.75,0l0,20.7l30.24,0l0,20.7c1.4,0.23 18.38,0 21.4,0c9.07,0 12.56,-1.16 14.19,6.51c1.16,5.12 0,13.49 -5.35,14.19c-3.49,0.23 -7.44,0 -10.93,0l-204.48,0c-5.12,-0.23 -6.28,-9.07 -5.12,-14.19c2.09,-8.14 6.51,-6.51 14.19,-6.51l21.4,0l0,-20.7c2.09,-0.23 26.05,0 30.24,0l0.47,-20.7z" class="cls-5"/>
    <path id="svg_95" d="m998.446102,554.86891l0,9.07l-0.93,0.23a22.57,22.57 0 0 1 -4,-0.23a60.66,60.66 0 0 1 0,-6.51c0,-1.63 -0.23,-2.33 1.16,-2.33a4.21,4.21 0 0 1 3.72,-0.23l0.05,0zm-4.94,9.31a34.8,34.8 0 0 0 2.09,4.19l8.37,0c3.49,0 2.79,-2.09 2.79,-4.89l0,-7.44c0,-2.09 0.23,-5.35 -1.16,-6.28a28.33,28.33 0 0 0 -6.28,0l0,4c-0.23,-0.23 0,0.23 -0.23,-0.23a7.82,7.82 0 0 0 -2.09,-3.49c-11.63,-0.23 -10.47,0 -10.47,5.12l0,7c0,8.14 -1.16,7 7,7l0,-5.35l0,0l-0.02,0.37z" class="cls-3"/>
    <path id="svg_94" d="m968.446102,549.97891l-11.4,0l-1.4,4l0,-4c-8.37,-0.93 -7,1.16 -7,7.91l0,6.51c0,2.33 -0.23,4.19 2.79,4.19l7.91,0c9.54,0 9.54,1.16 9.54,-4.89a60.44,60.44 0 0 0 0,-6.51l-8.14,0c-0.23,0.93 -1.63,3 -2.09,4.19a9.59,9.59 0 0 1 2.79,0.23l0,1.16c0,0.93 0,0.93 -0.23,1.16a17.1,17.1 0 0 1 -4.89,0c-0.23,-1.16 0,-6 -0.23,-7.44l0,-1.15c0,-0.93 0,-0.23 0.23,-0.93c1.4,-0.23 8.14,0 10.47,0l1.65,-4.43z" class="cls-3"/>
    <path id="svg_93" d="m893.766102,554.16891l-2.09,-4.19c-11.4,0 -10.47,-0.93 -10.47,5.12c0,2.09 -0.23,12.79 0.93,13.49a28.33,28.33 0 0 0 6.28,0l0,-4c0.23,0.93 1.16,2.79 1.4,3.49c0.23,0 0.23,0 0.23,0.23l10.47,0c0,-0.23 0,-0.23 0.23,0l0,-8.61c0,-2.33 -0.23,-6.28 0,-8.14l-0.23,-0.23c-0.23,0 -0.23,0 0,-0.23l-6.28,0l0,2.79a8.26,8.26 0 0 1 -0.23,2.33l0,8.14c-0.23,1.16 -1.63,0.93 -3,0.93l-1.16,0c-1.63,0 -0.23,0 -0.93,-0.23s-0.23,-1.63 -0.23,-2.33l0,-6.19c0.23,-1.63 2.09,-1.63 4.19,-1.16c1.63,0 0.23,0 0.93,0.23c-0.04,-1.21 -0.04,-0.27 -0.04,-1.44z" class="cls-3"/>
    <path id="svg_92" d="m944.716102,549.97891l-16.52,0l-2.07,4.19l1.63,0l0,14.19l15.82,0l1.4,-4.19l-10.27,0l0,-2.79l7.91,0c0.23,-1.16 1.4,-3 1.4,-4.19l-7.44,0c-0.93,1.16 -1.16,2.79 -2.09,3.49l0,-6.28l8.14,0l2.09,-4.42z" class="cls-3"/>
    <path id="svg_91" d="m867.246102,554.86891c2.09,-0.93 5.35,0.23 7.44,-0.23c0.93,-0.23 0.93,-1.16 1.4,-2.33c0.23,-0.93 0.93,-1.63 0.93,-2.79l-8.37,0l-1.63,4.19l0,-4.42a60.66,60.66 0 0 0 -6.51,0c-1.16,2.33 -0.93,12.79 -0.23,16.52c0,3 3.49,2.33 7,2.33l9.31,0c0.23,-0.93 1.63,-3.49 1.63,-4.19c-2.33,-0.23 -10.24,0.23 -10.47,-0.23l0,-4.65c-0.73,-1.18 -0.96,-3.53 -0.5,-4.2z" class="cls-3"/>
    <path id="svg_90" d="m904.706102,554.39891a5.16,5.16 0 0 1 2.09,0.23l0,14l14.66,0l1.63,-4.19l-9.31,0l0,-14.46l-7,0l-2.07,4.42z" class="cls-3"/>
    <path id="svg_89" d="m975.656102,549.97891c-0.93,0.23 -0.93,0.23 -0.93,1.16c-0.23,0.23 -0.23,0.93 -0.23,1.16a21.62,21.62 0 0 1 -1.16,2.33l2.09,0l0,14.19l7.44,0l0,-18.6c-0.23,-0.24 -7.21,-0.24 -7.21,-0.24z" class="cls-3"/>
    <path id="svg_88" d="m926.126102,523.46891c0.23,0.23 0.23,0 0.23,1.63l0,6c-0.93,0.23 -0.93,-0.23 -0.93,1.63l9.54,0l0,-3l-2.33,0c0,1.16 0,1.63 -0.23,1.63l-1.18,0c-1.63,0 -0.93,0 -1.16,-0.23l0,-2.79l3,0l0,-2.09l-3,0l0,-2.79l2.79,0c0,2.09 -0.23,1.63 2.79,1.63l0,-3l-10,0c-0.52,1.61 -0.52,1.38 0.48,1.38z" class="cls-3"/>
    <path id="svg_87" d="m950.996102,526.48891l0,-3c2.09,0 2.79,0 2.79,1.63c0,1.4 -0.7,1.63 -2.79,1.4l0,-0.03zm-3,-2.97a15.4,15.4 0 0 1 0.23,3.49l0,4l-0.93,0l0,1.16l5.12,0l0,-0.93c-1.16,0 -1.16,0 -1.16,-2.09c0,-1.16 0.23,-1.16 0.23,-1.16c1.16,0 4,-0.23 4.89,-0.93c2.09,-1.16 1.4,-5.12 -1.16,-5.12l-5.82,0c-2.09,0 -1.4,-0.23 -1.4,0.93l0,0.65z" class="cls-3"/>
    <path id="svg_86" d="m909.586102,523.69891l0,6.28c-0.23,1.63 -1.16,-0.93 -0.93,2.09l5.12,0c0,-2.79 -0.23,-0.93 -0.93,-2.09l0,-6.28c0.23,-1.16 1.16,0.93 0.93,-2.09l-5.12,0c0,2.09 0.7,1.39 0.93,2.09z" class="cls-3"/>
    <path id="svg_85" d="m932.386102,724.91891c0.93,1.16 3,0.93 4.89,1.63c1.4,0.93 2.09,2.79 0.23,4c-2.09,2.09 -8.37,1.63 -8.37,-2.09l2.79,0c0.93,0.93 1.63,2.33 3.49,0.93c0,-2.79 -7.91,-1.16 -5.35,-5.35c1.16,-2.09 7.91,-2.33 8.14,1.16c-4,0 -2.33,0 -3,-0.23c-1.4,-1.16 -2.56,-1.16 -2.79,0l-0.03,-0.05z" class="cls-5"/>
    <path id="svg_84" d="m949.126102,720.53891c-2.09,-0.23 -2.09,-1.16 -3.49,0.23c-0.93,1.16 0.93,5.35 3.49,4c0.93,-0.23 0.23,-0.23 0.93,-1.63c0,-0.23 0,-0.23 0.23,-0.23l2.84,0c0,5.35 -7.44,6.28 -9.54,2.09c-1.63,-2.79 -0.93,-4.89 1.63,-6c2.79,-1.63 4.19,-1.16 6.51,0.23c-0.93,1.16 -0.93,0.7 -2.56,1.4l-0.04,-0.09z" class="cls-5"/>
    <path id="svg_83" d="m923.776102,719.79891l2.79,0.93a18.35,18.35 0 0 1 -2.09,5.35c-0.93,2.09 -2.79,2.79 -5.35,2.09c-6.51,-1.63 -3,-5.35 -2.09,-9.54l3,0.93c0,2.33 -3.49,6.51 -0.23,7c2.79,0 2.33,-4.89 4,-6.75l-0.03,-0.01z" class="cls-5"/>
    <path id="svg_82" d="m953.786102,717.23891a5.16,5.16 0 0 0 6.28,4c2.33,-0.23 5.35,-2.33 4.89,-5.12c-1.86,-7.21 -12.56,-4 -11.17,1.16l0,-0.04z" class="cls-5"/>
    <ellipse id="svg_81" ry="2.56" rx="3.02" cy="716.54891" cx="959.136102" class="cls-3"/>
    <path id="svg_80" d="m910.286102,718.40891c-1.16,0.23 -2.33,0.93 -3,0c-2.09,-2.09 4.19,-7.44 4.89,-2.09l2.79,0.93c0.23,-2.79 -1.16,-4.19 -3.49,-5.12c-3,-1.16 -5.12,0.93 -6.28,2.33c-3,4.19 3.49,9.07 7.44,6l-2.33,-2.09l-0.02,0.04z" class="cls-5"/>
    <path id="svg_79" d="m990.306102,512.06891l0,0s-0.23,-0.23 -0.93,0s-0.23,9.54 -0.23,11.4a3,3 0 0 0 0.23,1.63l0.23,0c1.16,0.23 -1.16,0 0.23,0l24.89,0l0,16.52l19.54,0.23l0.47,0c0.23,0 0.23,0.23 0.23,-0.23l0,-0.23l-18.14,0c0,-2.09 0.23,-15.59 0,-16.52l-25.35,0c-0.23,-2.33 0,-9.31 0,-11.4l-1.16,-1.4l-0.01,0zm-116.08,14.42c-3,0 -24.66,-0.23 -25.82,0c-0.23,0.23 -0.23,7.44 -0.23,8.14l0,8.37l-14.43,0c-1.16,0 -3.49,-0.23 -4.19,0.23c0,0.93 0.23,0.93 1.16,0.93l18.62,0c0.93,-0.93 0.23,-6.51 0.23,-8.14l0,-8.37l25.82,0a126,126 0 0 0 0,-13.26c-1.63,-0.23 -1.16,0.93 -1.16,2.09l0,10l0,0.01zm26.75,67.22c0,-2.09 -0.23,-3.49 -0.23,-5.35a3,3 0 0 0 -1.63,-3c-1.63,-0.93 -1.16,-2.33 0.23,-2.79a8.73,8.73 0 0 1 2.33,-0.23c3,0.23 6.28,0 9.31,0a9.27,9.27 0 0 1 5.12,1.16c3.49,2.09 4.19,6.28 1.16,8.37c-0.93,0.93 -1.63,1.16 0,2.09c2.33,0.93 2.79,2.79 3,4.89c0.23,1.16 0.23,2.33 2.09,3c1.63,0.93 0.93,2.09 -0.23,2.79c-3,2.09 -8.14,0.23 -9.31,-2.79a11.85,11.85 0 0 1 -1.4,-4.89c-0.23,-1.16 -1.16,-2.09 -2.33,-1.63s-0.93,1.63 -0.93,2.33c0,1.63 0,3 1.63,4.19c1.16,0.93 0.23,2.09 -0.93,2.33c-3.49,0.93 -7,1.63 -10.47,-1.16c-0.23,-0.23 -0.23,-0.23 -0.93,0c-3.49,2.79 -7.91,1.63 -11.63,1.16c-1.16,0 -2.09,-1.63 -0.23,-2.33c0.23,-0.23 1.16,-0.93 0.93,-1.63c-0.23,-0.93 -0.93,-0.93 -1.63,-0.93l-5.12,0c-0.93,0 -1.16,0 -1.4,0.93s0,1.16 0.93,1.63s1.16,0.93 1.16,1.63c0,0.93 -0.93,1.16 -1.63,1.16a30.48,30.48 0 0 1 -6.51,0c-0.93,0 -1.16,-0.23 -1.16,-1.16a1.56,1.56 0 0 1 0.93,-1.63c1.4,-0.23 2.09,-1.63 2.79,-2.79c1.63,-4.89 4.89,-9.07 4.89,-14.19c0,-2.33 3,-3 5.35,-2.33a16.53,16.53 0 0 1 3.49,3.49c2.33,4 4.19,7.91 6.28,11.63a8.37,8.37 0 0 0 1.16,2.09c0.23,1.63 2.33,2.79 3,2.33c1.16,-0.23 2.33,-2.09 2.33,-3.49a18.25,18.25 0 0 1 -0.41,-4.87l0,-0.01zm6.75,-4.65c0.23,0.93 -0.93,2.79 1.16,3c2.09,0 2.33,-1.16 2.33,-2.79s0,-3 -2.09,-3c-1.87,-0.46 -0.47,1.63 -1.4,2.8l0,-0.01zm-24.89,6c0.93,-0.23 2.33,0.93 2.09,-0.93c-0.23,-1.16 -0.93,-3.49 -2.33,-3.49s-1.63,2.09 -2.09,3c-0.23,2.41 1.86,1.24 2.33,1.47l0,-0.05zm49.55,-12.33a69.78,69.78 0 0 1 7,0c2.09,0.23 4.89,1.63 5.35,4c0.93,2.33 0.23,4.19 -2.09,6c-1.16,0.93 -0.93,1.16 0.23,1.63c1.4,0.93 2.79,2.09 3,3.49c0.23,1.63 0.23,3 2.33,4.19c1.16,0.93 0.23,2.09 -0.93,2.33c-3.49,2.09 -8.14,0.23 -9.31,-3a11.26,11.26 0 0 0 -1.63,-4.19a2.31,2.31 0 0 0 -2.33,-1.63c-1.16,0.23 -0.93,1.16 -0.93,2.09c0,1.63 0,3 1.63,4.19c1.16,0.93 0.93,2.09 -0.93,2.33a15.86,15.86 0 0 1 -9.31,0c-1.63,-0.23 -2.33,-1.63 -0.23,-2.79a3.4,3.4 0 0 0 1.16,-3c0,-3 0,-6.51 -0.23,-9.54c0,-1.16 0,-2.33 -1.16,-2.79a1.46,1.46 0 0 1 -1.16,-2.09c0.23,-0.93 1.16,-1.16 2.33,-1.16l7.21,-0.06zm1.16,6.28c0.93,0.93 -1.16,2.79 1.16,2.79c2.09,0 2.33,-1.16 2.33,-2.79s0,-3.49 -2.33,-3c-2.09,-0.2 -0.46,1.89 -1.16,3.06l0,-0.06zm60.25,-6.28c1.63,-0.23 3,0.23 4.89,2.09c2.33,2.33 5.12,4.19 7.44,6.28c0.23,0.23 0.93,1.16 1.63,0.93c0.93,-0.23 0.23,-1.16 0.23,-1.63c0,-1.63 0,-3 -1.63,-4c-1.4,-0.93 -1.16,-2.33 0.93,-2.79a28.35,28.35 0 0 1 6.28,0c2.09,0.23 2.33,2.09 0.93,2.79c-1.63,0.93 -1.63,2.33 -1.63,3.49c0,3.49 0.23,7 0.23,10.47l0,2.18c0,1.16 0,2.33 -1.16,2.79c-1.16,0.93 -2.09,-0.23 -3,-1.16c-3,-2.79 -6.28,-5.35 -9.31,-8.14c-0.23,-0.23 -1.16,-1.16 -2.09,-0.93s-0.93,1.16 -0.93,2.09c0,2.09 0,4 2.09,5.35c1.16,0.93 0.23,2.09 -0.93,2.79c-2.09,0.93 -4,0.23 -5.35,0c-2.33,-0.23 -2.79,-2.09 -1.16,-3.49a2.77,2.77 0 0 0 0.87,-2.3a76,76 0 0 0 -0.23,-10.24c0,-1.16 -0.23,-2.33 -1.63,-2.79c-0.93,-0.23 -2.09,-1.16 -1.16,-2.33c0.23,-1.16 1.63,-1.16 2.33,-1.16a5.22,5.22 0 0 1 2.36,-0.23l0,-0.06zm-17.91,22.33c-7,0 -12.1,-5.12 -12.1,-11.63c0,-6.28 5.12,-10.93 11.63,-10.93s12.56,5.35 12.56,12.1c-0.46,6.33 -5.58,10.52 -12.09,10.52l0,-0.06zm4,-7.91a15.27,15.27 0 0 0 -3,-8.37c-0.93,-1.16 -2.09,-2.09 -3.49,-1.63c-1.63,0.23 -2.09,2.09 -2.09,3a13.74,13.74 0 0 0 2.79,8.14c0.93,1.16 2.09,2.09 3.49,1.63c1.79,0.08 1.79,-1.55 2.25,-2.71l0.05,-0.06zm-131.43,-3.49a11.45,11.45 0 0 1 15.82,-10.47a6.44,6.44 0 0 0 2.09,0.23c3.49,0.23 6,4.19 4,7c-1.16,2.09 -3.49,2.09 -4.89,0c-0.93,-1.16 -1.16,-2.33 -2.33,-3c-1.63,-0.93 -2.79,-1.63 -4.89,-0.93c-2.09,0.93 -2.09,2.33 -2.09,4c0,5.12 3,8.37 7.44,8.14a5.72,5.72 0 0 0 4,-1.16c1.63,-1.16 2.33,-0.23 2.33,1.16c0,1.63 -0.23,3 -1.63,3.49c-4.19,2.09 -8.37,3.49 -13.26,1.16a10.69,10.69 0 0 1 -6.64,-9.56l0.05,-0.06zm239.15,14.89a22.62,22.62 0 0 1 -4.19,-0.23c-1.63,-0.23 -2.09,-1.63 -0.93,-2.79c0.23,-0.23 1.16,-0.93 1.16,-1.63c0,-4 0,-7.91 -0.23,-11.63c0,-1.16 -0.93,-1.63 -1.63,-2.33c-1.16,-1.16 -0.93,-2.09 0.93,-2.79a15.87,15.87 0 0 1 9.31,-0.23c2.33,0.23 2.33,1.63 0.93,3a3.14,3.14 0 0 0 -1.16,2.33c0,3.49 0,7 0.23,10.47c0,1.16 0.23,2.09 1.63,2.33c1.63,1.16 1.16,2.33 -0.93,3a21.82,21.82 0 0 1 -136.6,-2.93l131.48,3.43zm-87.02,-40.48c0.93,0 1.63,0.23 2.33,0.23c1.63,0.23 2.09,1.63 0.93,2.79a7.47,7.47 0 0 1 -5.12,2.33c-0.93,0 -1.63,0 -2.09,-0.93c-0.23,-0.93 0.23,-1.16 0.93,-1.63c0.23,-0.23 0.93,-0.93 0.93,-1.16c-24.47,6.34 -23.54,6.34 -21.68,6.34l23.77,-7.97z" class="cls-5"/>
    <circle id="svg_78" r="28.139999" cy="727.17789" cx="887.649282" class="cls-6"/>
    <circle fill="#e1e5ef" id="svg_77" r="41.439999" cy="730.1622" cx="956.470452" class="cls-7"/>
    <circle fill="#3bb747" id="svg_76" r="53.220001" cy="683.97238" cx="1039.604132" class="cls-8"/>
    <circle fill="#0747a6" r="68.410004" id="svg_75" cy="571.12891" cx="1077.016112" class="cls-9"/>
   </g>
  </g>
  <g id="svg_105"/>
 </g>
</svg>